<?xml version="1.0" encoding="UTF-8"?>
<svg version="1.1" xmlns="http://www.w3.org/2000/svg" width="1024" height="192">
<path d="M0 0 C6.27 0 12.54 0 19 0 C19.03738281 3.02285156 19.07476563 6.04570313 19.11328125 9.16015625 C19.15955268 12.10252938 19.21076593 15.04477812 19.26245117 17.98706055 C19.29561184 20.02474345 19.32367112 22.06251624 19.34643555 24.1003418 C19.38014462 27.03733463 19.43246874 29.97351023 19.48828125 32.91015625 C19.49467117 33.81459976 19.5010611 34.71904327 19.50764465 35.65089417 C19.63409524 41.14713595 20.32888924 45.15400864 23 50 C25.37883489 51.3259856 25.37883489 51.3259856 28 51 C31.12056696 49.26635169 31.85331791 48.44004627 33 45 C33.11375872 43.51229395 33.17607202 42.02032676 33.20532227 40.52856445 C33.22526749 39.62785721 33.24521271 38.72714996 33.26576233 37.79914856 C33.28247482 36.83031235 33.29918732 35.86147614 33.31640625 34.86328125 C33.33718735 33.86870407 33.35796844 32.87412689 33.37937927 31.84941101 C33.44479412 28.67051133 33.5037224 25.49152866 33.5625 22.3125 C33.60569288 20.15819452 33.64930742 18.00389746 33.69335938 15.84960938 C33.80046731 10.56649142 33.90175766 5.28328995 34 0 C40.27 0 46.54 0 53 0 C53.02505615 1.3725293 53.0501123 2.74505859 53.07592773 4.15917969 C53.17008947 9.25074625 53.27028894 14.34217919 53.37231445 19.43359375 C53.4156301 21.637338 53.45730759 23.84111508 53.49731445 26.04492188 C53.55509844 29.21234024 53.61876976 32.37959386 53.68359375 35.546875 C53.70030624 36.53242371 53.71701874 37.51797241 53.73423767 38.53338623 C53.7641555 39.91436493 53.7641555 39.91436493 53.79467773 41.32324219 C53.81799416 42.53569611 53.81799416 42.53569611 53.84178162 43.77264404 C53.99702135 45.95806731 54.40008809 47.89708581 55 50 C59.76253165 51.22954603 59.76253165 51.22954603 64.19628906 49.68261719 C67.02799132 45.47109249 66.60331724 41.29519269 66.609375 36.328125 C66.62591125 35.29057068 66.64244751 34.25301636 66.65948486 33.184021 C66.70803985 29.8726209 66.72935302 26.56168029 66.75 23.25 C66.77815332 21.00388304 66.80807984 18.75778755 66.83984375 16.51171875 C66.91380124 11.00785031 66.96333037 5.50423809 67 0 C73.6 0 80.2 0 87 0 C87.04620784 5.9043354 87.08594344 11.80802941 87.10986328 17.71240234 C87.11984748 19.71600484 87.13343955 21.71959305 87.15087891 23.72314453 C87.41236129 54.56268435 87.41236129 54.56268435 79 64 C73.60243803 69.15738943 67.8403634 70.65087605 60.5625 71.3125 C54.11432909 70.74687097 48.36919035 68.63719346 43 65 C42.48050781 65.34933594 41.96101562 65.69867188 41.42578125 66.05859375 C34.36758893 70.66403162 34.36758893 70.66403162 30 71 C28.948125 71.0825 27.89625 71.165 26.8125 71.25 C18.81714303 70.7257143 12.55057011 68.61816988 6.69140625 63.03125 C1.72371617 57.06543281 -0.13414394 49.76740284 -0.11352539 42.11791992 C-0.11344986 41.17732224 -0.11337433 40.23672455 -0.11329651 39.2676239 C-0.10813522 38.2653627 -0.10297394 37.2631015 -0.09765625 36.23046875 C-0.0962413 35.19432938 -0.09482635 34.15819 -0.09336853 33.09065247 C-0.08778242 29.78957196 -0.07523242 26.48855992 -0.0625 23.1875 C-0.05748321 20.94596452 -0.05292061 18.70442798 -0.04882812 16.46289062 C-0.03781753 10.97523414 -0.02056239 5.48762867 0 0 Z " fill="#6193E3" transform="translate(531,63)"/>
<path d="M0 0 C1.06476563 -0.020625 2.12953125 -0.04125 3.2265625 -0.0625 C11.04488272 -0.10091926 17.41428438 0.92857067 24.25 4.8125 C29.28228385 10.26414084 31.80391743 15.99569947 32 23.4375 C31.79562542 28.39997029 30.78214149 31.87589548 28.5 36.25 C28.5 36.91 28.5 37.57 28.5 38.25 C29.69342452 39.29239561 30.93136204 40.28409725 32.1875 41.25 C37.76211428 46.00277949 40.97805699 51.53115606 42 58.8125 C40.91990944 66.23812262 38.92036289 71.95569206 33.5 77.25 C28.52400525 80.19497648 24.34137722 81.36955331 18.61132812 81.39526367 C17.64352417 81.40164352 16.67572021 81.40802338 15.67858887 81.41459656 C14.12065613 81.41626579 14.12065613 81.41626579 12.53125 81.41796875 C11.45879028 81.42129715 10.38633057 81.42462555 9.28137207 81.42805481 C7.01522246 81.43311447 4.74906541 81.43546343 2.48291016 81.43530273 C-0.98677793 81.43749166 -4.4561493 81.45566443 -7.92578125 81.47460938 C-10.12760308 81.47754297 -12.32942642 81.47952799 -14.53125 81.48046875 C-15.56987183 81.48765427 -16.60849365 81.49483978 -17.67858887 81.50224304 C-18.64639282 81.49916641 -19.61419678 81.49608978 -20.61132812 81.49291992 C-21.4608606 81.49434494 -22.31039307 81.49576996 -23.18566895 81.49723816 C-25.76985878 81.2211712 -27.35427859 80.71686316 -29.5 79.25 C-30.3399851 76.01005746 -30.81529376 73.48820955 -29.98046875 70.2097168 C-27.6777911 67.1616308 -24.441991 66.42001876 -20.9375 65.26953125 C-20.19040771 65.01121017 -19.44331543 64.7528891 -18.67358398 64.48674011 C-16.28688932 63.66474814 -13.89388986 62.86326625 -11.5 62.0625 C-9.10785048 61.24647067 -6.71711073 60.42640469 -4.32641602 59.60612488 C-2.83850532 59.09736829 -1.34943629 58.59198457 0.14086914 58.09028625 C3.88923431 56.84067932 3.88923431 56.84067932 7.5 55.25 C7.31870185 51.81206661 7.31870185 51.81206661 6.5 48.25 C4.38445756 46.74242728 3.17935614 46.16919595 0.57876587 46.47851562 C-0.08708527 46.70216797 -0.7529364 46.92582031 -1.43896484 47.15625 C-2.2001059 47.40310547 -2.96124695 47.64996094 -3.74545288 47.90429688 C-4.55906281 48.18337891 -5.37267273 48.46246094 -6.2109375 48.75 C-7.94789391 49.31257028 -9.68487381 49.87506802 -11.421875 50.4375 C-14.15111221 51.34135106 -16.87828942 52.25110157 -19.60449219 53.1640625 C-22.23954854 54.04082628 -24.88091199 54.89606344 -27.5234375 55.75 C-28.73777969 56.16862305 -28.73777969 56.16862305 -29.97665405 56.59570312 C-34.81442217 58.15181325 -37.73752205 58.62987852 -42.5 56.25 C-44.5 54.25 -44.5 54.25 -44.8125 51.375 C-44.45774438 47.82744381 -43.90022476 46.81163394 -41.5 44.25 C-39.07141113 43.08563232 -39.07141113 43.08563232 -36.15820312 42.14355469 C-35.06697144 41.78348328 -33.97573975 41.42341187 -32.85144043 41.0524292 C-31.67327759 40.67934631 -30.49511475 40.30626343 -29.28125 39.921875 C-28.07182739 39.52800598 -26.86240479 39.13413696 -25.61633301 38.72833252 C-23.05935466 37.89837237 -20.5013868 37.07366264 -17.93994141 36.2578125 C-14.6572868 35.21211379 -11.37997987 34.15075741 -8.10428619 33.08347702 C-4.97760047 32.06561052 -1.84822161 31.05613819 1.28125 30.046875 C3.04849426 29.47510529 3.04849426 29.47510529 4.85144043 28.89178467 C5.94267212 28.5443219 7.03390381 28.19685913 8.15820312 27.83886719 C9.11956177 27.53116394 10.08092041 27.22346069 11.07141113 26.90643311 C13.5 26.25 13.5 26.25 16.5 26.25 C16.5928125 24.331875 16.5928125 24.331875 16.6875 22.375 C16.72230469 21.65570313 16.75710938 20.93640625 16.79296875 20.1953125 C16.69628906 19.55335937 16.59960938 18.91140625 16.5 18.25 C13.0747968 15.9665312 11.68605763 16.17295823 7.73901367 16.78927612 C3.87370044 17.58464514 0.15534371 18.75134247 -3.59375 19.97265625 C-4.84194519 20.37006264 -4.84194519 20.37006264 -6.11535645 20.77549744 C-8.74572115 21.61461198 -11.37285138 22.46337664 -14 23.3125 C-15.79406508 23.88671097 -17.58833415 24.460285 -19.3828125 25.03320312 C-23.7576009 26.43145026 -28.12951748 27.83835446 -32.5 29.25 C-36.38117297 25.71105471 -37.21051664 23.55719499 -37.5 18.25 C-37.17 17.26 -36.84 16.27 -36.5 15.25 C-34.8293457 14.4855957 -34.8293457 14.4855957 -32.67578125 13.92578125 C-31.8964624 13.70559326 -31.11714355 13.48540527 -30.31420898 13.25854492 C-29.48864502 13.0288501 -28.66308105 12.79915527 -27.8125 12.5625 C-21.30462586 10.60601282 -16.78011559 9.07848716 -13.27734375 2.88671875 C-13.02082031 2.34660156 -12.76429688 1.80648437 -12.5 1.25 C-10.00407406 -1.24592594 -3.34827616 0.01575659 0 0 Z " fill="#6193E3" transform="translate(268.5,55.75)"/>
<path d="M0 0 C7.88864722 6.48904852 12.67263586 13.40048052 14.28515625 23.65234375 C15.42768913 35.74743323 13.81767373 46.5100162 6.1484375 56.29296875 C-0.70550349 63.63200602 -9.30019788 66.87223479 -19.1875 67.5 C-27.95268561 67.19244963 -35.35366604 64.80476417 -42.25 59.25 C-51.35447743 49.42025063 -53.84934742 40.04172242 -53.53125 26.8671875 C-52.79338586 17.37743479 -49.3886226 9.03351453 -42.328125 2.4609375 C-30.04884276 -7.20066829 -13.18121674 -9.37219594 0 0 Z M-29.4375 17.625 C-33.55173051 23.58354074 -34.05332371 29.16885023 -33.25 36.25 C-31.63770214 41.49650439 -29.0668234 45.44952128 -24.25 48.25 C-20.3370156 49.31717756 -18.01507913 49.47952374 -14.125 48.3125 C-9.57089144 45.04542212 -7.03877907 41.25994223 -5.61328125 35.8203125 C-4.54321063 28.43337336 -6.13982772 22.55593657 -10.125 16.3125 C-13.12863049 13.39721158 -15.63538809 12.45182649 -19.75 11.9375 C-24.08563054 12.47945382 -26.52516753 14.46303904 -29.4375 17.625 Z " fill="#6193E3" transform="translate(511.25,66.75)"/>
<path d="M0 0 C8.3840625 -0.12375 8.3840625 -0.12375 16.9375 -0.25 C18.68281006 -0.28641602 20.42812012 -0.32283203 22.22631836 -0.36035156 C30.20102855 -0.45817872 37.09177744 -0.53471271 44 4 C45.21429687 4.77730469 45.21429687 4.77730469 46.453125 5.5703125 C52.85965128 11.11335046 57.43056238 18.43850777 58.17700195 27.03955078 C58.72150458 46.19476274 58.72150458 46.19476274 54 54 C53.38125 55.06927734 53.38125 55.06927734 52.75 56.16015625 C48.52160873 62.58683048 42.24698714 66.58433762 35 69 C32.34130872 69.0849393 29.70893227 69.11602423 27.05078125 69.09765625 C26.36576538 69.09664917 25.68074951 69.09564209 24.97497559 69.09460449 C22.42079998 69.08938007 19.86664828 69.07541879 17.3125 69.0625 C11.599375 69.041875 5.88625 69.02125 0 69 C0 46.23 0 23.46 0 0 Z M19 17 C19 28.55 19 40.1 19 52 C27.18867923 52.51994183 27.18867923 52.51994183 33 49 C38.18010541 43.24432732 38.28552658 38.68423973 38.21875 31.171875 C37.87377277 26.16970516 36.20881736 23.39769508 33 19.6875 C28.4740251 15.86870867 25.43496961 17 19 17 Z " fill="#6193E3" transform="translate(625,63)"/>
<path d="M0 0 C1.12563103 0.00212242 1.12563103 0.00212242 2.27400208 0.00428772 C4.66838585 0.00988065 7.06267578 0.02243181 9.45703125 0.03515625 C11.08137886 0.04017217 12.70572793 0.04473491 14.33007812 0.04882812 C18.309961 0.05899645 22.28964118 0.07857313 26.26953125 0.09765625 C26.26953125 5.70765625 26.26953125 11.31765625 26.26953125 17.09765625 C23.47162109 17.18853516 23.47162109 17.18853516 20.6171875 17.28125 C18.18879335 17.36563435 15.76040838 17.45028339 13.33203125 17.53515625 C11.48448242 17.59413086 11.48448242 17.59413086 9.59960938 17.65429688 C8.42978516 17.69619141 7.25996094 17.73808594 6.0546875 17.78125 C4.42865601 17.83623657 4.42865601 17.83623657 2.76977539 17.89233398 C0.33026825 17.8212989 0.33026825 17.8212989 -0.73046875 19.09765625 C-0.77110707 20.7638274 -0.77318975 22.4315372 -0.73046875 24.09765625 C2.12459174 25.04934308 4.17890407 25.28775085 7.15625 25.4140625 C8.09404297 25.45595703 9.03183594 25.49785156 9.99804688 25.54101562 C10.97451172 25.58033203 11.95097656 25.61964844 12.95703125 25.66015625 C13.94509766 25.70333984 14.93316406 25.74652344 15.95117188 25.79101562 C18.39046097 25.89707167 20.82997779 25.99786599 23.26953125 26.09765625 C23.26953125 31.70765625 23.26953125 37.31765625 23.26953125 43.09765625 C21.62082031 43.15824219 19.97210937 43.21882813 18.2734375 43.28125 C16.12629225 43.36563562 13.97915734 43.4502846 11.83203125 43.53515625 C10.74341797 43.57447266 9.65480469 43.61378906 8.53320312 43.65429688 C7.49873047 43.69619141 6.46425781 43.73808594 5.3984375 43.78125 C4.4401001 43.81790771 3.4817627 43.85456543 2.49438477 43.89233398 C0.298142 43.85600049 0.298142 43.85600049 -0.73046875 45.09765625 C-0.77110707 46.7638274 -0.77318975 48.4315372 -0.73046875 50.09765625 C1.89676521 51.41127323 3.99563686 51.31019534 6.93359375 51.4140625 C8.61582031 51.4769043 8.61582031 51.4769043 10.33203125 51.54101562 C11.50765625 51.58033203 12.68328125 51.61964844 13.89453125 51.66015625 C15.07789063 51.70333984 16.26125 51.74652344 17.48046875 51.79101562 C20.41001032 51.89732963 23.33975502 51.99801842 26.26953125 52.09765625 C26.26953125 57.70765625 26.26953125 63.31765625 26.26953125 69.09765625 C21.39390145 69.1897458 16.52131606 69.26929792 11.64550781 69.31738281 C9.988828 69.33743634 8.33221843 69.36468654 6.67578125 69.39941406 C4.28758367 69.44821137 1.90032578 69.47068689 -0.48828125 69.48828125 C-1.59020309 69.51924896 -1.59020309 69.51924896 -2.71438599 69.55084229 C-7.89749051 69.55307847 -10.7335703 68.34013186 -14.73046875 65.09765625 C-19.55396153 60.0549138 -21.4839547 56.15443044 -22.04296875 49.22265625 C-21.88082015 43.17682975 -19.71925015 37.65626357 -15.73046875 33.09765625 C-16.36984375 32.16953125 -17.00921875 31.24140625 -17.66796875 30.28515625 C-21.11531885 24.95743336 -21.38310332 20.29308862 -20.73046875 14.09765625 C-18.93551005 8.16916408 -15.72948417 4.60760325 -10.73046875 1.09765625 C-7.09813773 -0.11312076 -3.77924888 -0.02678539 0 0 Z " fill="#6193E3" transform="translate(708.73046875,62.90234375)"/>
<path d="M0 0 C6.6 0 13.2 0 20 0 C23.375 9 23.375 9 24.25854492 12.39648438 C24.55851631 13.53676086 24.55851631 13.53676086 24.86454773 14.70007324 C25.16942863 15.88494324 25.16942863 15.88494324 25.48046875 17.09375 C25.80704216 18.34194519 25.80704216 18.34194519 26.14021301 19.61535645 C26.82661955 22.24255302 27.50715454 24.87122809 28.1875 27.5 C28.65520973 29.29437233 29.12330506 31.0886442 29.59179688 32.8828125 C30.732323 37.25406028 31.86759021 41.62664291 33 46 C34.78652722 43.32020917 35.45148797 41.83470619 36.22094727 38.81982422 C36.43779678 37.98240692 36.6546463 37.14498962 36.87806702 36.28219604 C37.10521896 35.38211823 37.33237091 34.48204041 37.56640625 33.5546875 C37.92483864 32.16626144 37.92483864 32.16626144 38.29051208 30.74978638 C39.05325316 27.79288447 39.80843442 24.83412523 40.5625 21.875 C41.32091728 18.90894824 42.08098206 15.94335309 42.84519958 12.97879028 C43.32067211 11.13341566 43.79264843 9.28713618 44.26087952 7.43991089 C44.58142555 6.19324142 44.58142555 6.19324142 44.90844727 4.92138672 C45.09560806 4.18653046 45.28276886 3.45167419 45.4756012 2.69454956 C46 1 46 1 47 0 C48.56172745 -0.08685603 50.12729344 -0.10702219 51.69140625 -0.09765625 C52.63564453 -0.09443359 53.57988281 -0.09121094 54.55273438 -0.08789062 C55.54595703 -0.07951172 56.53917969 -0.07113281 57.5625 -0.0625 C58.55958984 -0.05798828 59.55667969 -0.05347656 60.58398438 -0.04882812 C63.05604849 -0.03700007 65.52799518 -0.02051849 68 0 C63.93846071 12.87360445 59.86056569 25.74191607 55.76269531 38.60400391 C55.09413973 40.70426143 54.42746265 42.80510002 53.76171875 44.90625 C52.83026141 47.83667758 51.88731278 50.762982 50.9375 53.6875 C50.68798584 54.47858154 50.43847168 55.26966309 50.18139648 56.0847168 C48.52980647 61.10251174 46.66622628 66.13307068 42.17578125 69.27734375 C36.8637341 71.15938981 32.45512139 71.55145654 27 70 C18.45131087 64.94137203 16.80976121 56.13659749 14.0625 47.1875 C13.54793927 45.56909255 13.03132151 43.95133775 12.51269531 42.33422852 C11.47767756 39.09562262 10.45527916 35.85346928 9.44384766 32.60742188 C8.14651419 28.45051642 6.80635268 24.30964955 5.44921875 20.171875 C4.71568142 17.92723505 3.98257469 15.68245431 3.25 13.4375 C2.74738647 11.89775513 2.74738647 11.89775513 2.23461914 10.3269043 C1.93547607 9.39273682 1.63633301 8.45856934 1.328125 7.49609375 C0.93995605 6.29231079 0.93995605 6.29231079 0.54394531 5.06420898 C0 3 0 3 0 0 Z " fill="#6193E3" transform="translate(738,63)"/>
<path d="M0 0 C13.2 0 26.4 0 40 0 C40 5.61 40 11.22 40 17 C36.7 17 33.4 17 30 17 C30 28.55 30 40.1 30 52 C33.3 52 36.6 52 40 52 C40 57.61 40 63.22 40 69 C26.8 69 13.6 69 0 69 C0 63.39 0 57.78 0 52 C3.3 52 6.6 52 10 52 C10 40.45 10 28.9 10 17 C6.7 17 3.4 17 0 17 C0 11.39 0 5.78 0 0 Z " fill="#6193E3" transform="translate(325,63)"/>
<path d="M0 0 C6.6 0 13.2 0 20 0 C20.02505615 1.47388184 20.0501123 2.94776367 20.07592773 4.46630859 C20.16989152 9.91936379 20.27013892 15.37228831 20.37231445 20.82519531 C20.41570516 23.18812001 20.45737713 25.55107691 20.49731445 27.9140625 C20.55491693 31.30478636 20.6186401 34.6953475 20.68359375 38.0859375 C20.70030624 39.14743011 20.71701874 40.20892273 20.73423767 41.30258179 C20.75418289 42.28344757 20.77412811 43.26431335 20.79467773 44.27490234 C20.81799416 45.57396011 20.81799416 45.57396011 20.84178162 46.89926147 C20.87096592 49.05757893 20.87096592 49.05757893 22 51 C28.27 51.33 34.54 51.66 41 52 C41 57.61 41 63.22 41 69 C36.83262822 69.10839984 32.6681046 69.18752306 28.5 69.25 C27.32695312 69.28351563 26.15390625 69.31703125 24.9453125 69.3515625 C18.11907597 69.42826179 12.57967245 69.23969348 7 65 C4.94140625 62.81640625 4.94140625 62.81640625 3.5625 60.5625 C3.08941406 59.82128906 2.61632812 59.08007812 2.12890625 58.31640625 C0.14029417 54.23596694 -0.12466585 50.24033564 -0.11352539 45.75073242 C-0.11341209 44.21971138 -0.11341209 44.21971138 -0.11329651 42.65776062 C-0.10813522 41.5680043 -0.10297394 40.47824799 -0.09765625 39.35546875 C-0.0962413 38.2305452 -0.09482635 37.10562164 -0.09336853 35.9466095 C-0.08777931 32.36021241 -0.07522872 28.77387816 -0.0625 25.1875 C-0.05748361 22.75325611 -0.05292094 20.31901124 -0.04882812 17.88476562 C-0.03781339 11.92315294 -0.02055611 5.96158712 0 0 Z " fill="#6193E3" transform="translate(415,63)"/>
<path d="M0 0 C6.6 0 13.2 0 20 0 C20.02505615 1.47388184 20.0501123 2.94776367 20.07592773 4.46630859 C20.16989152 9.91936379 20.27013892 15.37228831 20.37231445 20.82519531 C20.41570516 23.18812001 20.45737713 25.55107691 20.49731445 27.9140625 C20.55491693 31.30478636 20.6186401 34.6953475 20.68359375 38.0859375 C20.70030624 39.14743011 20.71701874 40.20892273 20.73423767 41.30258179 C20.75418289 42.28344757 20.77412811 43.26431335 20.79467773 44.27490234 C20.81799416 45.57396011 20.81799416 45.57396011 20.84178162 46.89926147 C20.87096592 49.05757893 20.87096592 49.05757893 22 51 C28.27 51.33 34.54 51.66 41 52 C41 57.61 41 63.22 41 69 C36.83262822 69.10839984 32.6681046 69.18752306 28.5 69.25 C27.32695312 69.28351563 26.15390625 69.31703125 24.9453125 69.3515625 C18.11907597 69.42826179 12.57967245 69.23969348 7 65 C4.94140625 62.81640625 4.94140625 62.81640625 3.5625 60.5625 C3.08941406 59.82128906 2.61632812 59.08007812 2.12890625 58.31640625 C0.14029417 54.23596694 -0.12466585 50.24033564 -0.11352539 45.75073242 C-0.11341209 44.21971138 -0.11341209 44.21971138 -0.11329651 42.65776062 C-0.10813522 41.5680043 -0.10297394 40.47824799 -0.09765625 39.35546875 C-0.0962413 38.2305452 -0.09482635 37.10562164 -0.09336853 35.9466095 C-0.08777931 32.36021241 -0.07522872 28.77387816 -0.0625 25.1875 C-0.05748361 22.75325611 -0.05292094 20.31901124 -0.04882812 17.88476562 C-0.03781339 11.92315294 -0.02055611 5.96158712 0 0 Z " fill="#6193E3" transform="translate(370,63)"/>
</svg>
